Coordinates
version=1
nRows=12
nColumns=24
inDegrees=yes

Units are S.I. units (second, meters, Newtons, ...)
Angles are in degrees.

endheader
time	pelvis_tilt	pelvis_list	pelvis_rotation	pelvis_tx	pelvis_ty	pelvis_tz	hip_flexion_r	hip_adduction_r	hip_rotation_r	knee_angle_r	ankle_angle_r	subtalar_angle_r	mtp_angle_r	hip_flexion_l	hip_adduction_l	hip_rotation_l	knee_angle_l	ankle_angle_l	subtalar_angle_l	mtp_angle_l	lumbar_extension	lumbar_bending	lumbar_rotation
      5.53000000	      7.22435020	      2.58429103	      2.64084005	      2.04326271	      0.90913351	     -0.13583577	     19.20412142	     -3.28485379	     -7.35839629	    -18.48908529	     17.24949111	      4.56914134	      0.00000000	    -27.35320642	      6.91935636	     21.89234838	      3.76245273	      3.49536846	    -32.73069827	      0.00000000	    -32.68542468	      1.15212483	    -11.33336854
      5.54000000	      7.57511955	      2.88034529	      2.69249279	      2.05815442	      0.90736903	     -0.13491142	     18.24696500	     -3.45848166	     -7.65521795	    -15.52275959	     17.00998774	      4.82259563	      0.00000000	    -28.59718486	      7.01775734	     22.23484237	      3.40105800	      3.41222200	    -32.51846618	      0.00000000	    -33.05333897	      0.88849445	    -11.26450469
      5.55000000	      7.86656541	      3.19721920	      2.74650899	      2.07321030	      0.90572049	     -0.13394108	     17.45255381	     -3.65586931	     -7.91647999	    -13.25968934	     16.99116811	      5.05738575	      0.00000000	    -29.58083676	      7.20700341	     22.42094812	      2.66990524	      3.35120456	    -32.13754706	      0.00000000	    -33.32342296	      0.60004808	    -11.19662986
      5.56000000	      8.10188644	      3.53132065	      2.72827828	      2.08845100	      0.90435741	     -0.13284862	     16.82302520	     -3.85647737	     -8.01655151	    -11.73797111	     17.04510867	      5.36237946	      0.00000000	    -30.14332179	      7.60269965	     21.29703357	      1.27630092	      4.88083481	    -29.32652460	      0.00000000	    -33.49456843	      0.26243823	    -11.09682547
      5.57000000	      8.27887630	      3.84295345	      2.72269559	      2.10380590	      0.90329440	     -0.13172876	     16.34609709	     -4.04829405	     -8.02651708	    -10.96047851	     17.16310504	      5.62700115	      0.00000000	    -30.29460595	      8.05102042	     19.51885295	     -0.70438792	      6.73915900	    -25.69122927	      0.00000000	    -33.58463993	     -0.04465468	    -11.01524689
      5.58000000	      8.38873861	      4.06937302	      2.67930021	      2.11927904	      0.90255082	     -0.13045404	     16.01123624	     -4.13944634	     -7.82582574	    -10.85855199	     17.15791076	      5.74856470	      0.00000000	    -29.86617482	      8.47174554	     16.26829470	     -3.48238628	      9.39343567	    -20.18256540	      0.00000000	    -33.58447189	     -0.28524547	    -10.85836501
      5.59000000	      8.38962480	      4.21261095	      2.64351250	      2.13478868	      0.90199875	     -0.12903079	     15.88235185	     -4.15923486	     -7.57991759	    -11.42191218	     17.09635513	      5.92044931	      0.00000000	    -28.85284105	      8.69898268	     12.28193169	     -6.94237307	     11.90526653	    -14.12043497	      0.00000000	    -33.45978333	     -0.46165512	    -10.70966356
      5.60000000	      8.37067774	      4.11898612	      2.60144575	      2.15044201	      0.90165063	     -0.12747058	     15.81208988	     -3.92955208	     -7.30887857	    -12.47970811	     17.00129190	      6.04283384	      0.00000000	    -27.53883189	      8.50493027	      8.40540882	    -10.75221707	     13.35695453	     -8.97508614	      0.00000000	    -33.27794817	     -0.39389765	    -10.46152758
      5.61000000	      8.27263546	      3.90455365	      2.55423912	      2.16614655	      0.90141821	     -0.12587313	     15.89539679	     -3.60518985	     -7.16483712	    -13.97147348	     16.96092954	      6.26936408	      0.00000000	    -25.95718384	      8.05643022	      5.24202900	    -14.77235509	     13.49843114	     -5.34549667	      0.00000000	    -32.99571298	     -0.20584617	    -10.18840458
      5.62000000	      8.24851477	      3.51510773	      2.46144549	      2.18190697	      0.90146459	     -0.12422740	     15.89608083	     -3.09649840	     -7.02584752	    -15.65342197	     17.13375157	      6.55629453	      0.00000000	    -24.28254812	      7.34960738	      2.62872545	    -18.95023633	     12.51581949	     -2.99464388	      0.00000000	    -32.78205033	      0.16571158	     -9.86494563
      5.63000000	      8.28455916	      3.00411791	      2.40515148	      2.19759209	      0.90180872	     -0.12266583	     15.79877405	     -2.50083208	     -7.11307859	    -17.36722608	     17.36258961	      6.79646174	      0.00000000	    -22.45907725	      6.43018145	      0.51239227	    -23.31159059	     10.57392886	     -1.56500852	      0.00000000	    -32.65169212	      0.69524281	     -9.53678236
      5.64000000	      8.32857119	      2.39375945	      2.42489055	      2.21313338	      0.90234172	     -0.12122144	     15.61164539	     -1.83589579	     -7.36908504	    -18.95522590	     17.72073711	      6.92538435	      0.00000000	    -20.41034940	      5.32196237	     -1.18602409	    -27.85100637	      7.87434229	     -0.82341531	      0.00000000	    -32.54515731	      1.36400148	     -9.27646130
